# xmcd
#
# Track frame offsets: 
#        150
#        12677
#        24374
#        38713
#        51084
#        64927
#        76788
#        91076
#        104404
#        118195
#
# Disc length: 1780 seconds
#
# Revision: 0
# Processed by: cddbd v1.5.2PL0 Copyright (c) Steve Scherf et al.
# Submitted via: ExactAudioCopy v1.0b1
#
DISCID=7806f20a
DTITLE=Ernest Tubb - Ernest Tubb Collection (2 of 3)
DYEAR=1900
DGENRE=Country
TTITLE0=You Nearly Lose Your Mind
TTITLE1=You're The Only Good Thing
TTITLE2=Filipino Baby
TTITLE3=Jimmy Rodgers' Last Blue Yodel (The Women Make A Fool Out Of M
TTITLE3=e)
TTITLE4=Seaman's Blues
TTITLE5=Thanks A Lot
TTITLE6=It's Been So Long, Darling
TTITLE7=Blue Eyed Elaine
TTITLE8=Our Baby's Book
TTITLE9=Soldier's Last Letter
EXTD=
EXTT0=
EXTT1=
EXTT2=
EXTT3=
EXTT4=
EXTT5=
EXTT6=
EXTT7=
EXTT8=
EXTT9=
PLAYORDER=
